<?xml version="1.0" encoding="UTF-8"?>
<!DOCTYPE svg PUBLIC "-//W3C//DTD SVG 1.1//EN" "http://www.w3.org/Graphics/SVG/1.1/DTD/svg11.dtd">
<!-- Creator: CorelDRAW 2019 (64-Bit) -->
<svg xmlns="http://www.w3.org/2000/svg" xml:space="preserve" width="2901px" height="1080px" version="1.1" style="shape-rendering:geometricPrecision; text-rendering:geometricPrecision; image-rendering:optimizeQuality; fill-rule:evenodd; clip-rule:evenodd"
viewBox="0 0 2901 1079.92"
 xmlns:xlink="http://www.w3.org/1999/xlink"
 xmlns:xodm="http://www.corel.com/coreldraw/odm/2003">
 <defs>
  <style type="text/css">
   <![CDATA[
    .fil1 {fill:#EC6722}
    .fil0 {fill:#007697}
   ]]>
  </style>
 </defs>
 <g id="Layer_x0020_1">
  <metadata id="CorelCorpID_0Corel-Layer"/>
  <path class="fil0" d="M997.66 0c33.83,23.16 68.24,58.28 68.24,92.22l0 598.04c0,33.5 -31.59,80.89 -60.36,99.78 101.48,0 202.96,0 304.45,0 196.98,-8.13 316.46,-79.25 330.74,-228.35 10.02,-104.58 -45.24,-185.92 -180.99,-231.78 67.73,-25.77 104.14,-81.89 107.47,-159.3 5.71,-133.15 -149.25,-170.61 -246.72,-170.61l-322.83 0zm188.97 320.22l0 -249.35 93.43 0c106,0 155.93,52.01 155.91,130.4 -0.01,78.39 -71.68,118.95 -161.13,118.95l-88.21 0zm99.6 393.7l-99.6 0 0 -322.84 112.86 0c168.13,0 218.99,101.1 209.97,183.73 -9.01,82.64 -80.03,139.11 -223.23,139.11zm622.58 -713.92l-165.44 0c36.79,40.94 52.84,62.44 52.84,125.89l0 545.01c0,62.78 -27.83,101.3 -67.74,128.56l220.13 0c-32.69,-19.95 -67.87,-59.12 -67.87,-130.01l0 -481.47c111.2,148.56 222.41,297.11 333.62,445.66 63.05,82.49 136.15,152.41 221.39,207.18l0 -717.8c0,-71.88 28.98,-99.3 67.76,-123.02l-214.63 0c38.91,28.86 59.53,61.46 59.53,120.16l0 480.69 -439.59 -600.85zm716.5 799.46c44.53,-29.55 67.17,-64.21 67.17,-109.21l0 -570.86c0,-67.5 -19.48,-82.76 -57.68,-119.39l254.07 0c-43.85,24.68 -74.62,75.09 -74.62,119.39l0 569.29c0,43.68 25.85,83.69 60.91,110.78l-249.85 0z"/>
  <path class="fil1" d="M0 0l245.26 0c-12.81,21.98 -22.51,71.4 2.29,182.41 22.04,98.67 85.79,201.6 152.29,282.96l-83.56 68.61 -316.28 -397.4 0 -136.58zm358.16 0l431.76 0 0 104.63c-33.39,-19.52 -94.3,-38.38 -183.72,-2.61 -144.29,57.72 -156.65,226.74 -156.65,226.74 -79.82,-96.42 -132.32,-254.5 -91.39,-328.76zm431.76 243.41l0 311.41c-98.11,37.23 -235.72,-59.59 -270.29,-174.53 -50.12,-166.61 68.01,-226.74 152.52,-210.25 63.16,12.33 99.83,49.97 117.77,73.37zm0 362.53l0 184.01 -264.62 0 53.05 -43.55c-34.61,4.22 -102.62,-12.06 -135.73,-53.67l-93.15 -117.04 85.16 -69.91c52.33,57.68 102.17,99.12 130.34,111.55 60.34,26.62 128.3,39.47 224.95,-11.39zm-412.39 184.01l-289.07 0 180.11 -147.86c14.74,18.52 28.97,36.42 42.49,53.41 26.52,33.33 48.8,66.25 66.47,94.45zm-373.08 0l-4.45 0 0 -485.31c68.79,86.43 156.66,196.84 235.38,295.75l-230.93 189.56z"/>
  <path class="fil0" d="M2733.31 1017.91l0 0 14.84 -2.19c0.87,5.68 3.06,10.05 6.99,13.53 3.93,3.07 9.18,4.81 16.16,4.81 6.55,0 11.79,-1.74 15.28,-4.37 3.06,-2.61 4.81,-6.11 4.81,-10.04 0,-3.06 -1.31,-5.68 -4.37,-7.86 -2.18,-1.31 -7.42,-3.06 -15.28,-4.8 -10.92,-3.06 -18.78,-5.25 -22.72,-7.43 -4.36,-2.18 -7.86,-4.8 -10.04,-8.3 -2.18,-3.49 -3.05,-7.42 -3.05,-11.78 0,-3.94 0.87,-7.86 2.62,-10.93 1.74,-3.49 4.36,-6.11 7.42,-8.29 2.18,-1.75 5.68,-3.5 9.61,-4.37 3.93,-1.31 8.3,-2.18 12.66,-2.18 6.99,0 13.1,1.3 18.34,3.05 5.24,2.19 9.18,4.81 11.8,8.3 2.18,3.49 3.92,7.87 5.23,13.54l-14.84 2.18c-0.88,-4.8 -2.62,-8.29 -5.68,-10.91 -3.06,-2.19 -7.86,-3.5 -13.54,-3.5 -6.98,0 -11.79,0.87 -14.85,3.06 -3.05,2.62 -4.36,5.24 -4.36,8.3 0,1.75 0.87,3.49 1.75,5.23 1.3,1.32 3.05,2.63 5.67,3.94 1.75,0.44 6.12,1.74 13.54,3.93 10.48,2.62 17.9,4.8 21.84,6.99 4.37,1.74 7.85,4.36 10.04,7.86 2.19,3.05 3.49,7.42 3.49,12.66 0,4.8 -1.3,9.61 -4.37,13.98 -2.61,4.36 -6.98,7.86 -12.66,10.48 -5.24,2.19 -11.35,3.49 -18.34,3.49 -11.79,0 -20.52,-2.62 -26.2,-7.42 -6.12,-4.81 -10.05,-11.79 -11.79,-20.96zm124.9 -24.9c10.04,-1.31 17.46,-3.06 22.7,-4.8 0,-2.19 0,-3.49 0,-3.93 0,-6.11 -1.3,-10.49 -4.37,-13.1 -3.49,-3.06 -9.16,-4.81 -17.02,-4.81 -0.44,0 -0.88,0 -1.31,0 -6.12,0 -10.93,1.31 -13.98,3.5 -3.49,2.62 -6.12,6.98 -7.43,13.09l-14.84 -1.74c1.31,-6.55 3.49,-11.35 6.54,-15.28 3.07,-3.94 7.43,-6.99 13.54,-8.74 4.81,-1.75 10.05,-3.06 16.17,-3.06 1.31,-0.43 2.62,-0.43 3.49,-0.43 7.86,0 13.97,1.3 18.34,3.05 4.8,1.75 8.3,3.94 10.48,6.55 2.19,2.63 3.93,6.12 4.8,10.05 0.44,2.62 0.88,7.42 0.88,13.98l0 19.65c0,13.97 0,23.14 0.87,26.64 0.43,3.49 1.75,7.42 3.93,10.48l-15.72 0c-1.75,-3.06 -2.62,-6.55 -3.06,-10.92 -5.68,4.81 -10.92,8.3 -16.15,10.05 -2.63,0.87 -5.24,1.75 -7.86,2.18 -2.63,0.43 -5.68,0.87 -8.74,0.87 -9.61,0 -17.03,-2.62 -22.27,-6.99 -5.24,-4.8 -7.86,-10.92 -7.86,-18.34 0,-4.37 1.31,-8.3 3.05,-11.79 2.19,-3.49 4.37,-6.55 7.86,-8.74 3.06,-2.18 6.55,-3.93 10.49,-4.8 3.05,-0.87 7.42,-1.75 13.53,-2.18 1.31,-0.44 2.62,-0.44 3.94,-0.44zm0 41.05c3.92,-0.43 7.42,-1.74 10.47,-3.49 4.37,-2.19 7.86,-5.68 10.05,-10.05 1.31,-3.49 2.18,-8.73 2.18,-15.28l0 -5.24c-5.24,2.18 -12.66,3.93 -22.7,5.24 -0.44,0 -1.32,0.44 -1.76,0.44 -6.11,0.87 -10.47,1.74 -13.1,3.05 -2.61,0.88 -4.36,2.63 -5.67,4.81 -1.75,2.18 -2.19,4.37 -2.19,6.98 0,3.94 1.31,7.43 4.37,10.05 3.06,2.62 7.42,3.93 13.54,3.93 1.75,0 3.05,0 4.81,-0.44zm-2853.44 10.05l0 0 0 -121.85 24.45 0 28.82 86.47c2.63,7.86 4.81,13.98 5.68,17.91 1.75,-4.37 3.93,-10.92 6.55,-19.65l29.26 -84.73 21.84 0 0 121.85 -15.72 0 0 -101.76 -35.38 101.76 -14.41 0 -35.37 -103.5 0 103.5 -15.72 0zm234.94 0l0 0 0 -121.85 15.29 0 0 121.85 -15.29 0zm-58.51 -52.41l24.89 0c-0.88,-7.42 -2.62,-13.1 -5.68,-17.03 -4.8,-5.68 -10.91,-8.3 -18.34,-8.3 -0.44,0 -0.44,0 -0.87,0 -6.56,0 -12.23,2.18 -16.6,6.56 -4.8,4.8 -7.42,10.91 -7.86,18.77l24.46 0zm0 42.36c0.43,0 0.87,0 1.31,0 5.68,0 10.04,-1.74 13.97,-4.37 3.93,-3.05 6.99,-7.42 9.61,-13.97l15.28 1.75c-2.62,9.17 -6.98,16.16 -13.54,21.4 -6.55,4.8 -15.28,7.42 -25.32,7.42 -0.44,0 -0.88,0 -1.31,0 -12.23,-0.44 -22.28,-4.37 -29.27,-12.23 -7.86,-7.86 -11.35,-18.78 -11.35,-33.19 0,-14.85 3.49,-26.64 11.35,-34.5 7.43,-8.3 17.48,-12.23 29.27,-12.66 0.43,0 0.43,0 0.43,0 11.8,0 21.4,4.36 28.83,12.23 7.86,7.85 11.35,19.21 11.35,34.06 0,0.87 0,2.18 0,3.93l-40.61 0 -25.33 0c0.43,9.61 3.49,17.03 8.29,22.27 4.81,4.81 10.48,7.43 17.04,7.86zm190.84 44.12l0 0 -1.75 -13.98c3.49,0.87 6.12,1.31 8.74,1.31 3.05,0 5.67,-0.44 7.85,-1.75 2.18,-0.88 3.5,-2.62 4.81,-4.8 1.31,-1.31 2.62,-4.81 4.8,-10.92 0,-0.88 0.44,-2.19 1.31,-3.49l-33.62 -88.66 16.15 0 18.35 51.1c2.61,6.55 4.8,13.53 6.55,20.52 1.74,-6.99 3.49,-13.54 6.11,-20.09l18.78 -51.53 14.85 0 -33.63 89.96c-3.49,9.61 -6.11,16.16 -8.3,20.09 -2.62,4.81 -5.67,8.3 -9.17,10.48 -3.49,2.63 -7.42,3.5 -12.23,3.5 -3.05,0 -6.11,-0.44 -9.6,-1.74zm-60.27 -85.17c10.04,-1.31 17.47,-3.06 22.71,-4.8 0,-2.19 0,-3.49 0,-3.93 0,-6.11 -1.31,-10.49 -4.37,-13.1 -3.93,-3.06 -9.61,-4.81 -17.03,-4.81 -0.44,0 -0.87,0 -1.31,0 -6.55,0 -10.92,1.31 -14.41,3.5 -3.06,2.62 -5.68,6.98 -7.42,13.09l-14.41 -1.74c1.31,-6.55 3.49,-11.35 6.55,-15.28 3.05,-3.94 7.42,-6.99 13.09,-8.74 4.81,-1.75 10.49,-3.06 16.6,-3.06 0.87,-0.43 2.18,-0.43 3.5,-0.43 7.42,0 13.53,1.3 18.34,3.05 4.8,1.75 8.29,3.94 10.48,6.55 2.18,2.63 3.93,6.12 4.8,10.05 0.43,2.62 0.43,7.42 0.43,13.98l0 19.65c0,13.97 0.45,23.14 1.32,26.64 0.44,3.49 1.75,7.42 3.49,10.48l-15.72 0c-1.31,-3.06 -2.18,-6.55 -2.62,-10.92 -5.68,4.81 -10.92,8.3 -16.16,10.05 -2.62,0.87 -5.24,1.75 -7.86,2.18 -3.05,0.43 -5.68,0.87 -8.73,0.87 -9.61,0 -17.04,-2.62 -22.28,-6.99 -5.23,-4.8 -7.86,-10.92 -7.86,-18.34 0,-4.37 0.87,-8.3 3.06,-11.79 1.75,-3.49 4.37,-6.55 7.43,-8.74 3.49,-2.18 6.99,-3.93 10.91,-4.8 3.06,-0.87 7.42,-1.75 13.54,-2.18 1.31,-0.44 2.62,-0.44 3.93,-0.44zm0 41.05c3.5,-0.43 6.99,-1.74 10.48,-3.49 4.37,-2.19 7.43,-5.68 9.61,-10.05 1.75,-3.49 2.62,-8.73 2.62,-15.28l0 -5.24c-5.24,2.18 -12.67,3.93 -22.71,5.24 -0.87,0 -1.31,0.44 -1.74,0.44 -6.12,0.87 -10.49,1.74 -13.1,3.05 -2.63,0.88 -4.81,2.63 -6.12,4.81 -1.31,2.18 -1.75,4.37 -1.75,6.98 0,3.94 1.32,7.43 4.37,10.05 3.06,2.62 7.42,3.93 13.1,3.93 1.75,0 3.5,0 5.24,-0.44zm422.3 10.05l0 0 0 -121.85 16.59 0 64.19 95.65 0 -95.65 15.29 0 0 121.85 -16.59 0 -63.76 -95.65 0 95.65 -15.72 0zm-86.91 0l0 0 0 -88.22 15.29 0 0 88.22 -15.29 0zm0 -104.38l0 0 0 -17.47 15.29 0 0 17.47 -15.29 0zm-94.76 104.38l0 0 0 -88.22 13.53 0 0 12.66c6.55,-9.6 16.16,-14.84 28.39,-14.84 5.24,0 10.04,1.3 14.41,3.05 4.37,1.75 7.86,4.37 10.04,7.43 2.19,3.05 3.94,6.99 4.81,11.35 0.44,2.63 0.87,7.42 0.87,14.41l0 54.16 -15.28 0 0 -53.72c0,-6.11 -0.44,-10.48 -1.75,-13.54 -0.87,-3.06 -3.06,-5.67 -6.11,-7.42 -3.06,-1.75 -6.11,-2.62 -10.49,-2.62 -6.11,0 -11.78,2.18 -16.15,6.12 -4.81,3.92 -6.99,11.79 -6.99,23.14l0 48.04 -15.28 0zm-60.7 -51.1c10.04,-1.31 17.46,-3.06 22.7,-4.8 0,-2.19 0,-3.49 0,-3.93 0,-6.11 -1.31,-10.49 -4.37,-13.1 -3.92,-3.06 -9.6,-4.81 -17.02,-4.81 -0.44,0 -0.88,0 -1.31,0 -6.56,0 -11.36,1.31 -14.42,3.5 -3.05,2.62 -5.67,6.98 -7.42,13.09l-14.41 -1.74c1.31,-6.55 3.49,-11.35 6.55,-15.28 3.06,-3.94 7.42,-6.99 13.1,-8.74 4.81,-1.75 10.48,-3.06 16.6,-3.06 0.87,-0.43 2.18,-0.43 3.49,-0.43 7.42,0 13.54,1.3 18.34,3.05 4.8,1.75 8.3,3.94 10.48,6.55 2.19,2.63 3.5,6.12 4.8,10.05 0.44,2.62 0.44,7.42 0.44,13.98l0 19.65c0,13.97 0.44,23.14 0.87,26.64 0.88,3.49 2.18,7.42 3.94,10.48l-15.73 0c-1.31,-3.06 -2.62,-6.55 -3.05,-10.92 -5.25,4.81 -10.49,8.3 -15.72,10.05 -2.63,0.87 -5.24,1.75 -7.86,2.18 -3.06,0.43 -5.68,0.87 -8.74,0.87 -9.61,0 -17.03,-2.62 -22.27,-6.99 -5.24,-4.8 -7.86,-10.92 -7.86,-18.34 0,-4.37 0.87,-8.3 3.05,-11.79 1.75,-3.49 4.37,-6.55 7.43,-8.74 3.49,-2.18 6.98,-3.93 10.92,-4.8 3.05,-0.87 7.42,-1.75 13.1,-2.18 1.74,-0.44 3.05,-0.44 4.37,-0.44zm0 41.05c3.49,-0.43 6.99,-1.74 10.04,-3.49 4.8,-2.19 7.86,-5.68 10.04,-10.05 1.75,-3.49 2.62,-8.73 2.62,-15.28l0 -5.24c-5.24,2.18 -13.1,3.93 -22.7,5.24 -0.88,0 -1.32,0.44 -1.75,0.44 -6.12,0.87 -10.48,1.74 -13.11,3.05 -2.61,0.88 -4.8,2.63 -6.11,4.81 -1.31,2.18 -2.18,4.37 -2.18,6.98 0,3.94 1.74,7.43 4.8,10.05 3.06,2.62 7.43,3.93 13.11,3.93 1.74,0 3.49,0 5.24,-0.44zm399.58 -42.36l24.89 0c-0.87,-7.42 -2.62,-13.1 -5.68,-17.03 -4.8,-5.68 -10.91,-8.3 -18.77,-8.3 0,0 0,0 -0.44,0 -6.55,0 -12.23,2.18 -16.6,6.56 -4.8,4.8 -7.42,10.91 -7.86,18.77l24.46 0zm0 42.36c0.44,0 0.88,0 1.31,0 5.68,0 10.04,-1.74 13.98,-4.37 3.92,-3.05 6.98,-7.42 9.16,-13.97l15.73 1.75c-2.63,9.17 -6.99,16.16 -13.54,21.4 -6.55,4.8 -15.29,7.42 -25.33,7.42 -0.43,0 -0.87,0 -1.31,0 -12.23,-0.44 -22.28,-4.37 -29.7,-12.23 -7.42,-7.86 -11.35,-18.78 -11.35,-33.19 0,-14.85 3.93,-26.64 11.79,-34.5 7.42,-8.3 17.47,-12.23 29.26,-12.66 0,0 0.44,0 0.44,0 11.78,0 21.4,4.36 28.82,12.23 7.42,7.85 11.35,19.21 11.35,34.06 0,0.87 0,2.18 0,3.93l-40.61 0 -25.33 0c0.44,9.61 3.05,17.03 8.3,22.27 4.37,4.81 10.48,7.43 17.03,7.86zm92.58 -2.18c6.99,0 12.66,-2.63 17.47,-7.87 4.81,-5.23 6.99,-13.53 6.99,-24.88 0,-10.92 -2.62,-19.22 -7.43,-24.46 -4.37,-5.68 -10.04,-8.3 -17.03,-8.3 -6.99,0 -12.23,2.62 -17.03,7.86 -4.8,5.68 -6.98,13.54 -6.98,24.46 0,11.35 2.18,19.65 6.98,25.32 4.37,5.24 10.04,7.87 17.03,7.87zm0 35.81c6.11,-0.44 10.92,-1.75 14.41,-4.37 3.93,-2.62 6.12,-6.54 7.87,-11.35 0.43,-3.06 0.87,-9.61 0.87,-19.21 -6.12,7.42 -13.98,10.91 -23.15,11.35 -0.44,0 -0.87,0 -1.31,0 -12.23,0 -21.4,-4.37 -28.38,-13.1 -6.55,-8.74 -9.61,-19.22 -9.61,-31.45 0,-8.3 1.31,-16.16 4.36,-23.14 3.06,-7.43 7.43,-12.67 13.11,-16.6 6.11,-3.93 12.66,-6.11 20.52,-6.11 0.44,0 0.87,0 1.31,0 10.05,0.43 17.91,4.8 24.46,12.66l0 -10.48 13.97 0 0 76.43c0,13.53 -1.31,23.58 -4.37,29.26 -2.62,5.67 -6.98,10.04 -13.1,13.53 -5.67,3.07 -12.66,4.81 -20.96,4.81 -0.44,0 -0.87,0 -1.75,0 -10.48,0 -18.78,-2.18 -25.33,-6.99 -6.55,-4.81 -9.6,-11.79 -9.6,-21.39l14.85 2.18c0.43,4.36 2.18,7.86 4.8,9.6 3.93,3.06 9.17,4.37 15.28,4.37 0.88,0 1.31,0 1.75,0zm346.31 -23.58l0 0 0 -121.85 16.16 0 0 60.7 60.26 -60.7 21.84 0 -51.09 49.36 53.27 72.49 -20.96 0 -43.67 -61.58 -19.65 19.65 0 41.93 -16.16 0zm-92.14 0l0 0 0 -17.03 17.03 0 0 17.03c0,6.55 -0.88,11.35 -3.5,15.29 -2.18,3.92 -5.67,6.98 -10.48,8.72l-3.93 -6.11c3.06,-1.31 5.24,-3.49 6.99,-6.11 1.31,-2.62 2.18,-6.55 2.18,-11.79l-8.29 0zm-41.49 0l0 0 0 -88.22 14.85 0 0 88.22 -14.85 0zm0 -104.38l0 0 0 -17.47 14.85 0 0 17.47 -14.85 0zm-57.21 104.38l0 0 0 -88.22 13.53 0 0 13.54c3.5,-6.55 6.55,-10.48 9.62,-12.67 2.62,-1.75 6.11,-3.05 9.6,-3.05 4.81,0 10.05,1.74 15.29,4.8l-5.24 13.98c-3.5,-2.19 -7.43,-3.06 -10.92,-3.06 -3.05,0 -6.11,0.87 -8.73,3.06 -2.63,1.74 -4.37,4.36 -5.68,7.86 -1.75,5.67 -2.62,11.35 -2.62,17.47l0 46.29 -14.85 0zm-58.52 -52.41l24.45 0c-0.43,-7.42 -2.18,-13.1 -5.24,-17.03 -4.8,-5.68 -11.35,-8.3 -18.77,-8.3 0,0 -0.44,0 -0.44,0 -6.55,0 -12.23,2.18 -17.03,6.56 -4.37,4.8 -6.99,10.91 -7.43,18.77l24.46 0zm0 42.36c0.44,0 0.88,0 1.31,0 5.24,0 10.04,-1.74 13.98,-4.37 3.92,-3.05 6.98,-7.42 9.16,-13.97l15.29 1.75c-2.18,9.17 -6.55,16.16 -13.53,21.4 -6.55,4.8 -14.86,7.42 -24.9,7.42 -0.43,0 -0.87,0 -1.31,0 -12.23,-0.44 -22.27,-4.37 -29.7,-12.23 -7.42,-7.86 -11.35,-18.78 -11.35,-33.19 0,-14.85 3.93,-26.64 11.79,-34.5 7.42,-8.3 17.03,-12.23 29.26,-12.66 0,0 0,0 0.44,0 11.79,0 21.4,4.36 28.82,12.23 7.42,7.85 11.36,19.21 11.36,34.06 0,0.87 0,2.18 -0.44,3.93l-40.18 0 -25.33 0c0.44,9.61 3.06,17.03 8.3,22.27 4.37,4.81 10.05,7.43 17.03,7.86zm396.96 -42.36l24.9 0c-0.87,-7.42 -2.62,-13.1 -5.68,-17.03 -4.8,-5.68 -10.92,-8.3 -18.78,-8.3 0,0 0,0 -0.44,0 -6.55,0 -12.22,2.18 -16.59,6.56 -4.8,4.8 -7.42,10.91 -7.86,18.77l24.45 0zm0 42.36c0.44,0 0.88,0 1.32,0 5.23,0 10.04,-1.74 13.97,-4.37 3.93,-3.05 6.99,-7.42 9.17,-13.97l15.72 1.75c-2.62,9.17 -6.99,16.16 -13.54,21.4 -6.98,4.8 -15.28,7.42 -25.32,7.42 -0.44,0 -0.88,0 -1.32,0 -12.22,-0.44 -22.27,-4.37 -29.25,-12.23 -7.43,-7.86 -11.36,-18.78 -11.36,-33.19 0,-14.85 3.93,-26.64 11.79,-34.5 6.99,-8.3 17.04,-12.23 28.82,-12.66 0,0 0.44,0 0.44,0 11.79,0 21.4,4.36 28.83,12.23 7.42,7.85 11.35,19.21 11.35,34.06 0,0.87 0,2.18 0,3.93l-40.62 0 -24.88 0c0,9.61 2.61,17.03 7.86,22.27 4.37,4.81 10.04,7.43 17.02,7.86zm96.08 -79.92c0.88,-0.43 1.31,-0.43 1.75,-0.43 5.68,0 10.48,1.3 15.72,3.49 4.8,2.19 8.73,5.24 11.79,9.17 3.06,3.93 5.68,8.73 7.42,14.41 1.75,5.68 2.63,11.8 2.63,17.91 0,15.28 -3.93,27.08 -11.36,34.94 -7.42,8.29 -16.6,12.66 -27.07,12.66 0,0 -0.44,0 -0.88,0 -9.61,-0.44 -17.47,-4.8 -23.58,-13.1l0 10.92 -13.54 0 0 -121.85 14.85 0 0 43.68c5.68,-7.43 13.53,-11.8 22.27,-11.8zm0 79.92c6.55,-0.43 12.23,-3.05 16.6,-8.73 4.8,-5.68 7.42,-13.97 7.42,-25.33 0,-11.36 -2.18,-20.09 -6.99,-25.33 -4.37,-5.68 -10.04,-8.3 -16.59,-8.3 0,0 0,0 -0.44,0 -6.11,0 -11.79,2.62 -16.59,8.3 -4.81,5.68 -6.99,13.97 -6.99,24.89 0,10.48 1.31,17.91 4.37,22.71 4.8,7.86 10.91,11.79 19.21,11.79zm152.41 10.05l0 0 0 -88.22 13.1 0 0 12.66c6.55,-9.6 16.16,-14.84 28.39,-14.84 5.24,0 10.05,1.3 14.41,3.05 4.8,1.75 7.86,4.37 10.05,7.43 2.18,3.05 3.93,6.99 4.8,11.35 0.44,2.63 0.87,7.42 0.87,14.41l0 54.16 -14.85 0 0 -53.72c0,-6.11 -0.87,-10.48 -1.75,-13.54 -1.3,-3.06 -3.48,-5.67 -6.55,-7.42 -2.61,-1.75 -6.11,-2.62 -10.47,-2.62 -6.12,0 -11.8,2.18 -16.17,6.12 -4.79,3.92 -6.98,11.79 -6.98,23.14l0 48.04 -14.85 0zm-61.14 -51.1c10.05,-1.31 17.47,-3.06 22.71,-4.8 0,-2.19 0,-3.49 0,-3.93 0,-6.11 -1.31,-10.49 -4.36,-13.1 -3.94,-3.06 -9.61,-4.81 -17.04,-4.81 -0.44,0 -0.87,0 -1.31,0 -6.55,0 -10.92,1.31 -14.41,3.5 -3.06,2.62 -5.68,6.98 -7.42,13.09l-14.41 -1.74c1.31,-6.55 3.49,-11.35 6.55,-15.28 3.05,-3.94 7.42,-6.99 13.1,-8.74 4.8,-1.75 10.48,-3.06 16.59,-3.06 0.87,-0.43 2.19,-0.43 3.5,-0.43 7.42,0 13.54,1.3 18.34,3.05 4.8,1.75 8.3,3.94 10.48,6.55 2.18,2.63 3.93,6.12 4.81,10.05 0.43,2.62 0.43,7.42 0.43,13.98l0 19.65c0,13.97 0.44,23.14 1.31,26.64 0.44,3.49 1.75,7.42 3.49,10.48l-15.72 0c-1.31,-3.06 -2.18,-6.55 -2.62,-10.92 -5.67,4.81 -10.92,8.3 -16.16,10.05 -2.61,0.87 -5.24,1.75 -7.86,2.18 -3.05,0.43 -5.68,0.87 -8.73,0.87 -9.61,0 -17.03,-2.62 -22.27,-6.99 -5.24,-4.8 -7.87,-10.92 -7.87,-18.34 0,-4.37 0.88,-8.3 3.07,-11.79 1.74,-3.49 4.36,-6.55 7.42,-8.74 3.49,-2.18 6.99,-3.93 10.91,-4.8 3.06,-0.87 7.43,-1.75 13.54,-2.18 1.31,-0.44 2.62,-0.44 3.93,-0.44zm0 41.05c3.5,-0.43 6.99,-1.74 10.05,-3.49 4.8,-2.19 7.86,-5.68 10.04,-10.05 1.75,-3.49 2.62,-8.73 2.62,-15.28l0 -5.24c-5.24,2.18 -13.1,3.93 -22.71,5.24 -0.87,0 -1.31,0.44 -1.74,0.44 -6.12,0.87 -10.49,1.74 -13.1,3.05 -2.63,0.88 -4.81,2.63 -6.12,4.81 -1.31,2.18 -1.74,4.37 -1.74,6.98 0,3.94 1.31,7.43 4.36,10.05 3.06,2.62 7.42,3.93 13.1,3.93 1.75,0 3.5,0 5.24,-0.44zm189.53 -2.18c6.99,0 12.67,-2.63 17.03,-7.87 4.81,-5.23 6.99,-13.53 6.99,-24.88 0,-10.92 -2.18,-19.22 -6.99,-24.46 -4.8,-5.68 -10.48,-8.3 -17.03,-8.3 0,0 0,0 -0.43,0 -6.55,0 -12.23,2.62 -17.04,7.86 -4.36,5.68 -6.98,13.54 -6.98,24.46 0,11.35 2.62,19.65 6.98,25.32 4.81,5.24 10.49,7.87 17.47,7.87zm0 35.81c6.12,-0.44 10.92,-1.75 14.41,-4.37 3.5,-2.62 6.12,-6.54 7.43,-11.35 0.87,-3.06 1.31,-9.61 1.31,-19.21 -6.55,7.42 -13.98,10.91 -23.15,11.35 -0.43,0 -0.87,0 -1.31,0 -12.23,0 -21.83,-4.37 -28.38,-13.1 -6.55,-8.74 -10.05,-19.22 -10.05,-31.45 0,-8.3 1.75,-16.16 4.81,-23.14 3.05,-7.43 7.42,-12.67 13.1,-16.6 5.68,-3.93 12.67,-6.11 20.52,-6.11 0.44,0 0.88,0 1.31,0 9.61,0.43 17.91,4.8 24.46,12.66l0 -10.48 13.98 0 0 76.43c0,13.53 -1.75,23.58 -4.37,29.26 -3.06,5.67 -7.43,10.04 -13.54,13.53 -5.68,3.07 -12.23,4.81 -20.53,4.81 -0.43,0 -1.31,0 -1.74,0 -10.49,0 -19.22,-2.18 -25.33,-6.99 -6.55,-4.81 -9.61,-11.79 -9.61,-21.39l14.41 2.18c0.88,4.36 2.62,7.86 5.24,9.6 3.93,3.06 8.74,4.37 15.29,4.37 0.43,0 1.31,0 1.74,0zm94.77 -35.81c6.98,0 12.66,-2.63 17.03,-7.87 4.8,-5.23 6.99,-13.53 6.99,-24.88 0,-10.92 -2.19,-19.22 -6.99,-24.46 -4.8,-5.68 -10.48,-8.3 -17.03,-8.3 0,0 -0.44,0 -0.44,0 -6.55,0 -12.23,2.62 -17.03,7.86 -4.37,5.68 -6.99,13.54 -6.99,24.46 0,11.35 2.62,19.65 6.99,25.32 4.8,5.24 10.48,7.87 17.47,7.87zm0 35.81c6.11,-0.44 10.92,-1.75 14.41,-4.37 3.5,-2.62 6.11,-6.54 7.42,-11.35 0.88,-3.06 1.32,-9.61 1.32,-19.21 -6.56,7.42 -13.98,10.91 -23.15,11.35 -0.44,0 -0.87,0 -1.31,0 -12.23,0 -21.83,-4.37 -28.38,-13.1 -6.56,-8.74 -10.05,-19.22 -10.05,-31.45 0,-8.3 1.75,-16.16 4.8,-23.14 3.06,-7.43 7.43,-12.67 13.1,-16.6 5.68,-3.93 12.67,-6.11 20.53,-6.11 0.44,0 0.87,0 1.31,0 9.61,0.43 17.91,4.8 24.46,12.66l0 -10.48 13.53 0 0 76.43c0,13.53 -1.31,23.58 -3.93,29.26 -3.05,5.67 -7.42,10.04 -13.54,13.53 -5.68,3.07 -12.66,4.81 -20.52,4.81 -0.44,0 -1.31,0 -1.75,0 -10.48,0 -19.21,-2.18 -25.33,-6.99 -6.55,-4.81 -10.04,-11.79 -9.6,-21.39l14.41 2.18c0.87,4.36 2.61,7.86 5.24,9.6 3.49,3.06 8.73,4.37 15.28,4.37 0.44,0 1.31,0 1.75,0zm94.33 -74.68c10.04,-1.31 17.9,-3.06 22.71,-4.8 0,-2.19 0,-3.49 0,-3.93 0,-6.11 -1.32,-10.49 -3.93,-13.1 -3.94,-3.06 -9.62,-4.81 -17.04,-4.81 -0.44,0 -1.31,0 -1.74,0 -6.12,0 -10.92,1.31 -13.98,3.5 -3.49,2.62 -5.68,6.98 -7.42,13.09l-14.85 -1.74c1.75,-6.55 3.93,-11.35 6.55,-15.28 3.06,-3.94 7.86,-6.99 13.54,-8.74 4.8,-1.75 10.04,-3.06 16.16,-3.06 1.3,-0.43 2.61,-0.43 3.93,-0.43 7.42,0 13.54,1.3 18.34,3.05 4.8,1.75 7.86,3.94 10.48,6.55 2.18,2.63 3.49,6.12 4.37,10.05 0.43,2.62 0.87,7.42 0.87,13.98l0 19.65c0,13.97 0.44,23.14 0.88,26.64 0.87,3.49 1.74,7.42 3.92,10.48l-15.72 0c-1.74,-3.06 -2.61,-6.55 -3.05,-10.92 -5.68,4.81 -10.92,8.3 -16.16,10.05 -2.18,0.87 -5.25,1.75 -7.86,2.18 -2.62,0.43 -5.68,0.87 -8.3,0.87 -10.05,0 -17.47,-2.62 -22.71,-6.99 -4.8,-4.8 -7.42,-10.92 -7.42,-18.34 0,-4.37 0.87,-8.3 2.62,-11.79 2.18,-3.49 4.8,-6.55 7.86,-8.74 3.05,-2.18 6.99,-3.93 10.92,-4.8 2.62,-0.87 7.42,-1.75 13.1,-2.18 1.31,-0.44 2.62,-0.44 3.93,-0.44zm0 41.05c3.93,-0.43 7.42,-1.74 10.48,-3.49 4.36,-2.19 7.86,-5.68 10.04,-10.05 1.31,-3.49 2.19,-8.73 2.19,-15.28l0 -5.24c-5.24,2.18 -12.67,3.93 -22.71,5.24 -0.44,0 -0.88,0.44 -1.75,0.44 -6.11,0.87 -10.48,1.74 -13.1,3.05 -2.18,0.88 -4.37,2.63 -5.68,4.81 -1.31,2.18 -2.18,4.37 -2.18,6.98 0,3.94 1.75,7.43 4.8,10.05 2.62,2.62 7.43,3.93 13.1,3.93 1.75,0 3.5,0 4.81,-0.44zm155.9 10.05l0 0 0 -88.22 13.54 0 0 12.66c6.55,-9.6 15.72,-14.84 27.95,-14.84 5.24,0 10.48,1.3 14.85,3.05 4.36,1.75 7.86,4.37 10.04,7.43 2.18,3.05 3.49,6.99 4.37,11.35 0.87,2.63 0.87,7.42 0.87,14.41l0 54.16 -14.84 0 0 -53.72c0,-6.11 -0.44,-10.48 -1.76,-13.54 -1.3,-3.06 -3.05,-5.67 -6.11,-7.42 -3.05,-1.75 -6.55,-2.62 -10.48,-2.62 -6.55,0 -11.79,2.18 -16.59,6.12 -4.8,3.92 -6.99,11.79 -6.99,23.14l0 48.04 -14.85 0zm-61.14 -51.1c10.05,-1.31 17.91,-3.06 22.71,-4.8 0,-2.19 0,-3.49 0,-3.93 0,-6.11 -1.31,-10.49 -3.93,-13.1 -3.93,-3.06 -9.61,-4.81 -17.03,-4.81 -0.88,0 -1.31,0 -1.75,0 -6.11,0 -10.91,1.31 -13.97,3.5 -3.5,2.62 -5.68,6.98 -7.43,13.09l-14.84 -1.74c1.31,-6.55 3.49,-11.35 6.55,-15.28 3.05,-3.94 7.86,-6.99 13.54,-8.74 4.8,-1.75 10.04,-3.06 16.15,-3.06 1.31,-0.43 2.62,-0.43 3.93,-0.43 7.43,0 13.54,1.3 18.34,3.05 4.37,1.75 7.87,3.94 10.05,6.55 2.62,2.63 3.93,6.12 4.8,10.05 0.44,2.62 0.88,7.42 0.88,13.98l0 19.65c0,13.97 0.43,23.14 0.87,26.64 0.44,3.49 1.75,7.42 3.93,10.48l-15.72 0c-1.75,-3.06 -2.62,-6.55 -3.06,-10.92 -5.67,4.81 -10.92,8.3 -16.16,10.05 -2.62,0.87 -5.24,1.75 -7.86,2.18 -2.61,0.43 -5.68,0.87 -8.29,0.87 -10.05,0 -17.48,-2.62 -22.71,-6.99 -5.24,-4.8 -7.87,-10.92 -7.87,-18.34 0,-4.37 1.32,-8.3 3.06,-11.79 2.18,-3.49 4.81,-6.55 7.86,-8.74 3.06,-2.18 6.55,-3.93 10.92,-4.8 2.62,-0.87 6.99,-1.75 13.11,-2.18 1.31,-0.44 2.61,-0.44 3.92,-0.44zm0 41.05c3.93,-0.43 7.42,-1.74 10.48,-3.49 4.37,-2.19 7.87,-5.68 10.05,-10.05 1.31,-3.49 2.18,-8.73 2.18,-15.28l0 -5.24c-5.24,2.18 -12.66,3.93 -22.71,5.24 -0.43,0 -0.87,0.44 -1.74,0.44 -6.12,0.87 -10.49,1.74 -13.1,3.05 -2.63,0.88 -4.38,2.63 -5.68,4.81 -1.31,2.18 -2.19,4.37 -2.19,6.98 0,3.94 1.75,7.43 4.37,10.05 3.06,2.62 7.43,3.93 13.54,3.93 1.75,0 3.06,0 4.8,-0.44zm247.62 -111.8l2.61 0c9.18,0 16.6,1.31 22.27,3.94 5.68,2.17 10.05,6.11 13.11,11.35 3.49,4.8 4.8,10.48 4.8,16.16 0,4.8 -1.31,10.04 -3.93,14.41 -3.06,4.81 -7.43,8.3 -13.1,11.36 7.42,2.18 13.1,5.67 17.03,10.91 3.94,5.24 6.12,11.35 6.12,18.34 0,5.68 -1.31,11.36 -3.5,16.16 -2.62,4.8 -5.67,8.74 -9.17,11.35 -3.49,2.63 -7.86,4.37 -13.1,6.12 -5.68,1.31 -12.23,1.75 -20.09,1.75l-3.05 0 -43.24 0 0 -121.85 43.24 0zm0 51.1c6.55,0 11.79,-0.43 14.84,-1.31 3.93,-1.31 6.99,-3.06 9.17,-6.11 2.19,-2.63 3.06,-6.12 3.06,-10.49 0,-3.93 -0.87,-7.86 -3.06,-10.91 -1.74,-3.06 -4.8,-4.81 -8.29,-6.12 -3.06,-0.87 -8.3,-1.75 -15.72,-1.75 -0.88,0 -1.75,0 -2.63,0l-24.45 0 0 36.69 26.2 0c0.44,0 0.44,0 0.88,0zm0 56.33l3.05 0c5.24,0 9.17,0 11.36,-0.44 3.49,-0.87 6.55,-1.74 9.16,-3.48 2.63,-1.31 4.38,-3.5 6.12,-6.55 1.74,-3.06 2.62,-6.56 2.62,-10.49 0,-4.36 -1.31,-8.3 -3.49,-11.79 -2.62,-3.49 -5.68,-5.68 -10.05,-6.99 -3.93,-1.31 -10.04,-2.18 -17.46,-2.18l-1.31 0 -27.08 0 0 41.92 27.08 0zm163.76 14.42l0 0 0 -88.22 13.54 0 0 12.66c6.55,-9.6 15.72,-14.84 27.95,-14.84 5.67,0 10.48,1.3 14.84,3.05 4.37,1.75 7.87,4.37 10.05,7.43 2.18,3.05 3.93,6.99 4.81,11.35 0.43,2.63 0.87,7.42 0.87,14.41l0 54.16 -15.29 0 0 -53.72c0,-6.11 -0.44,-10.48 -1.75,-13.54 -0.87,-3.06 -3.05,-5.67 -6.11,-7.42 -3.05,-1.75 -6.55,-2.62 -10.48,-2.62 -6.11,0 -11.79,2.18 -16.6,6.12 -4.36,3.92 -6.98,11.79 -6.98,23.14l0 48.04 -14.85 0zm-61.14 -51.1c10.04,-1.31 17.91,-3.06 22.71,-4.8 0.43,-2.19 0.43,-3.49 0.43,-3.93 0,-6.11 -1.74,-10.49 -4.36,-13.1 -3.93,-3.06 -9.61,-4.81 -17.03,-4.81 -0.44,0 -1.31,0 -1.75,0 -6.11,0 -10.92,1.31 -13.97,3.5 -3.5,2.62 -5.68,6.98 -7.43,13.09l-14.41 -1.74c1.31,-6.55 3.49,-11.35 6.55,-15.28 3.06,-3.94 7.43,-6.99 13.1,-8.74 4.8,-1.75 10.05,-3.06 16.16,-3.06 1.31,-0.43 2.62,-0.43 3.93,-0.43 7.43,0 13.54,1.3 18.34,3.05 4.81,1.75 8.3,3.94 10.49,6.55 2.18,2.63 3.49,6.12 4.36,10.05 0.44,2.62 0.88,7.42 0.88,13.98l0 19.65c0,13.97 0.43,23.14 0.87,26.64 0.87,3.49 2.18,7.42 3.93,10.48l-15.72 0c-1.31,-3.06 -2.62,-6.55 -3.06,-10.92 -5.24,4.81 -10.92,8.3 -15.72,10.05 -2.62,0.87 -5.24,1.75 -8.3,2.18 -2.62,0.43 -5.68,0.87 -8.3,0.87 -9.61,0 -17.03,-2.62 -22.27,-6.99 -5.24,-4.8 -7.86,-10.92 -7.86,-18.34 0,-4.37 0.87,-8.3 2.62,-11.79 2.19,-3.49 4.8,-6.55 7.86,-8.74 3.06,-2.18 6.99,-3.93 10.92,-4.8 2.62,-0.87 7.42,-1.75 13.1,-2.18 1.31,-0.44 2.62,-0.44 3.93,-0.44zm0 41.05c3.93,-0.43 7.42,-1.74 10.48,-3.49 4.37,-2.19 7.86,-5.68 10.05,-10.05 1.74,-3.49 2.18,-8.73 2.18,-15.28l0 -5.24c-4.8,2.18 -12.67,3.93 -22.71,5.24 -0.43,0 -0.87,0.44 -1.74,0.44 -6.12,0.87 -10.49,1.74 -12.67,3.05 -2.62,0.88 -4.8,2.63 -6.11,4.81 -1.31,2.18 -2.19,4.37 -2.19,6.98 0,3.94 1.75,7.43 4.8,10.05 2.63,2.62 7.43,3.93 13.11,3.93 1.74,0 3.49,0 4.8,-0.44zm189.97 -2.18c6.55,0 12.66,-2.63 17.03,-7.87 4.8,-5.23 6.99,-13.53 6.99,-24.88 0,-10.92 -2.19,-19.22 -6.99,-24.46 -4.8,-5.68 -10.48,-8.3 -17.03,-8.3 -0.44,0 -0.44,0 -0.44,0 -6.55,0 -12.23,2.62 -17.03,7.86 -4.8,5.68 -6.99,13.54 -6.99,24.46 0,11.35 2.19,19.65 6.99,25.32 4.8,5.24 10.48,7.87 17.47,7.87zm0 35.81c6.11,-0.44 10.48,-1.75 13.97,-4.37 3.93,-2.62 6.55,-6.54 7.86,-11.35 0.88,-3.06 0.88,-9.61 0.88,-19.21 -6.12,7.42 -13.54,10.91 -22.71,11.35 -0.44,0 -1.31,0 -1.75,0 -12.23,0 -21.4,-4.37 -27.95,-13.1 -6.55,-8.74 -10.04,-19.22 -10.04,-31.45 0,-8.3 1.31,-16.16 4.37,-23.14 3.05,-7.43 7.86,-12.67 13.53,-16.6 5.68,-3.93 12.67,-6.11 20.53,-6.11 0.44,0 0.87,0 1.31,0 9.6,0.43 17.9,4.8 24.46,12.66l0 -10.48 13.53 0 0 76.43c0,13.53 -1.31,23.58 -3.93,29.26 -3.05,5.67 -7.42,10.04 -13.54,13.53 -5.68,3.07 -12.66,4.81 -20.52,4.81 -0.87,0 -1.31,0 -1.75,0 -10.48,0 -19.21,-2.18 -25.76,-6.99 -6.55,-4.81 -9.61,-11.79 -9.17,-21.39l14.41 2.18c0.87,4.36 2.18,7.86 5.23,9.6 3.5,3.06 8.74,4.37 15.29,4.37 0.44,0 0.88,0 1.75,0z"/>
 </g>
</svg>
