<?xml version="1.0" encoding="UTF-8"?>
<!DOCTYPE svg PUBLIC "-//W3C//DTD SVG 1.1//EN" "http://www.w3.org/Graphics/SVG/1.1/DTD/svg11.dtd">
<!-- Creator: CorelDRAW 2019 (64-Bit) -->
<svg xmlns="http://www.w3.org/2000/svg" xml:space="preserve" width="1272px" height="1080px" version="1.1" style="shape-rendering:geometricPrecision; text-rendering:geometricPrecision; image-rendering:optimizeQuality; fill-rule:evenodd; clip-rule:evenodd"
viewBox="0 0 1272 1079.78"
 xmlns:xlink="http://www.w3.org/1999/xlink"
 xmlns:xodm="http://www.corel.com/coreldraw/odm/2003">
 <defs>
  <style type="text/css">
   <![CDATA[
    .fil0 {fill:#1F4396}
   ]]>
  </style>
 </defs>
 <g id="Layer_x0020_1">
  <metadata id="CorelCorpID_0Corel-Layer"/>
  <path class="fil0" d="M252.44 110.1c0,-60.81 49.29,-110.1 110.09,-110.1l547.61 0c60.81,0 110.09,49.29 110.09,110.1l0 547.62c0,60.8 -49.28,110.09 -110.09,110.09l-547.61 0c-60.8,0 -110.09,-49.29 -110.09,-110.09l0 -547.62zm133.94 582.48c-32.42,0 -58.71,-26.29 -58.71,-58.72l0 -499.73c0,-32.43 26.29,-58.71 58.71,-58.71l66.98 0c88.25,0 153.6,89.42 97.16,145.95l-163.76 163.98 140.54 147.23c68.14,71.38 -11.65,160 -87.26,160l-53.66 0zm212.52 -617.16l56.6 0c88.25,0 153.61,89.42 97.16,145.95l-163.76 163.98 301.04 307.11 -317.69 -0.06c68.27,0 111.36,-114.84 38.3,-190.9l-111.56 -116.15 129.88 -133.88c69.93,-72.1 19.17,-164.85 -29.97,-176.05zm346.03 558.44l-243.79 -248.51 129.87 -133.88c69.94,-72.1 19.17,-164.85 -29.96,-176.05l85.05 0c32.43,0 58.72,26.28 58.72,58.71l0.11 499.73zm-895.24 366.03l0 44.74 19.99 0c10.36,0 18.23,-1.94 23.58,-5.83 5.36,-3.88 8.04,-9.53 8.04,-16.94 0,-7.33 -2.45,-12.82 -7.37,-16.48 -4.91,-3.66 -12.23,-5.49 -21.97,-5.49l-22.27 0zm0 -76.33l0 42.56 15.43 0c10.73,0 18.76,-1.82 24.08,-5.44 5.32,-3.62 7.98,-9.15 7.98,-16.58 0,-6.71 -2.5,-11.81 -7.51,-15.3 -5.01,-3.49 -12.39,-5.24 -22.13,-5.24l-17.85 0zm-49.69 -34.31l78 0c23.05,0 40.38,4.13 52,12.41 11.62,8.27 17.43,20.58 17.43,36.95 0,11 -3.05,20.14 -9.13,27.43 -6.07,7.28 -14.92,12.53 -26.54,15.76 13.04,2.41 23.07,7.52 30.08,15.35 7.02,7.81 10.52,17.8 10.52,29.95 0,17.87 -6.38,31.12 -19.16,39.74 -12.78,8.62 -32.47,12.94 -59.09,12.94l-74.11 0 0 -190.53zm261.16 42.49l-24.67 71.44 48.53 0 -23.86 -71.44zm-29.63 -42.49l61.27 0 72.12 190.53 -54.29 0 -13.54 -40.36 -73.34 0 -14.2 40.36 -50.25 0 72.23 -190.53zm144.38 0l63.39 0 55.18 114.23c1.88,3.85 4.07,9.19 6.57,16.03 2.5,6.83 5.27,15.21 8.3,25.14 -1.6,-9.39 -2.79,-18.01 -3.55,-25.88 -0.75,-7.86 -1.14,-15.06 -1.14,-21.58l0 -107.94 45.85 0 0 190.53 -63.13 0 -57.32 -118.4c-2.68,-5.45 -5.14,-11.37 -7.37,-17.76 -2.23,-6.4 -4.29,-13.34 -6.16,-20.86 1.78,11.36 3.1,21.8 3.95,31.32 0.85,9.51 1.28,17.89 1.28,25.14l0 100.56 -45.85 0 0 -190.53zm210.67 0l50.78 0 0 82.32 59 -82.32 56.85 0 -69.99 87.55 77.13 102.98 -63.1 0 -59.89 -88.36 0 88.36 -50.78 0 0 -190.53zm321.57 110.64l0 44.74 19.99 0c10.37,0 18.23,-1.94 23.59,-5.83 5.35,-3.88 8.03,-9.53 8.03,-16.94 0,-7.33 -2.45,-12.82 -7.37,-16.48 -4.91,-3.66 -12.23,-5.49 -21.97,-5.49l-22.27 0zm0 -76.33l0 42.56 15.43 0c10.73,0 18.76,-1.82 24.08,-5.44 5.32,-3.62 7.99,-9.15 7.99,-16.58 0,-6.71 -2.51,-11.81 -7.52,-15.3 -5,-3.49 -12.38,-5.24 -22.13,-5.24l-17.85 0zm-49.69 -34.31l78 0c23.05,0 40.39,4.13 52,12.41 11.62,8.27 17.42,20.58 17.42,36.95 0,11 -3.04,20.14 -9.11,27.43 -6.08,7.28 -14.93,12.53 -26.55,15.76 13.05,2.41 23.07,7.52 30.09,15.35 7.01,7.81 10.52,17.8 10.52,29.95 0,17.87 -6.39,31.12 -19.17,39.74 -12.77,8.62 -32.47,12.94 -59.09,12.94l-74.11 0 0 -190.53zm232.05 33.49l0 48.87 17.83 0c10.98,0 19.22,-1.99 24.72,-5.98 5.49,-3.98 8.24,-9.95 8.24,-17.92 0,-8.59 -3.06,-14.9 -9.18,-18.93 -6.12,-4.03 -15.79,-6.04 -29.01,-6.04l-12.6 0zm-49.69 -33.49l75.69 0c25.22,0 43.95,4.09 56.16,12.27 12.21,8.18 18.32,20.63 18.32,37.35 0,12.34 -3.22,22.49 -9.67,30.45 -6.44,7.95 -15.76,13.27 -27.93,15.95 10.02,3.67 18.08,14.08 24.17,31.23l22.76 63.28 -52.98 0 -16.76 -52.15c-2.68,-8.4 -6.34,-14.21 -10.99,-17.43 -4.64,-3.22 -11.88,-4.82 -21.71,-4.82l-7.37 0 0 74.4 -49.69 0 0 -190.53zm180.39 0l50.79 0 0 190.53 -50.79 0 0 -190.53z"/>
 </g>
</svg>
