<?xml version="1.0" encoding="UTF-8"?>
<!DOCTYPE svg PUBLIC "-//W3C//DTD SVG 1.1//EN" "http://www.w3.org/Graphics/SVG/1.1/DTD/svg11.dtd">
<!-- Creator: CorelDRAW 2019 (64-Bit) -->
<svg xmlns="http://www.w3.org/2000/svg" xml:space="preserve" width="3303px" height="1080px" version="1.1" style="shape-rendering:geometricPrecision; text-rendering:geometricPrecision; image-rendering:optimizeQuality; fill-rule:evenodd; clip-rule:evenodd"
viewBox="0 0 3303 1080.02"
 xmlns:xlink="http://www.w3.org/1999/xlink"
 xmlns:xodm="http://www.corel.com/coreldraw/odm/2003">
 <defs>
  <style type="text/css">
   <![CDATA[
    .fil0 {fill:#FEFEFE}
    .fil2 {fill:#003399}
    .fil1 {fill:#003399;fill-rule:nonzero}
   ]]>
  </style>
 </defs>
 <g id="Layer_x0020_1">
  <metadata id="CorelCorpID_0Corel-Layer"/>
  <path class="fil0" d="M547.6 36.94c-1.08,0 -2.17,0 -3.26,0 -145.04,0 -284.66,33.69 -419.93,101.59 -54.87,130.39 -85.84,262.95 -87.47,398.22 -2.17,134.19 25.54,271.64 86.92,411.8 141.25,61.39 282.5,92.9 423.74,94.53 141.25,-1.63 282.5,-33.14 423.75,-94.53 61.38,-140.16 89.09,-277.61 86.92,-411.8 -1.63,-135.27 -32.6,-267.83 -87.47,-398.22 -135.27,-67.9 -274.89,-101.59 -419.94,-101.59 -1.08,0 -2.17,0 -3.26,0z"/>
  <path class="fil1" d="M101.59 108.65l0 0c142.33,-72.79 290.1,-108.65 442.75,-108.65 1.09,0 2.18,0 3.26,0 1.09,0 2.18,0 3.26,0 152.66,0 300.42,35.86 442.76,108.65l0 0 8.69 9.24c58.13,136.9 91.27,276.53 92.9,418.32 0,2.71 0,4.89 0,7.6l0 9.78c-0.55,136.37 -29.88,275.44 -92.9,416.69l-9.78 9.24c-148.31,65.73 -296.62,98.87 -444.93,100.5 -148.3,-1.63 -296.62,-34.77 -444.92,-100.5l-9.78 -9.24c-63.02,-141.25 -92.36,-280.32 -92.9,-416.69l0 -9.78c0,-2.71 0,-4.89 0,-7.6 1.63,-141.79 34.77,-281.42 92.9,-418.32l8.69 -9.24zm446.01 -71.71c-1.08,0 -2.17,0 -3.26,0 -145.04,0 -284.66,33.69 -419.93,101.59 -54.87,130.39 -85.84,262.95 -87.47,398.22 -2.17,134.19 25.54,271.64 86.92,411.8 141.25,61.39 282.5,92.9 423.74,94.53 141.25,-1.63 282.5,-33.14 423.75,-94.53 61.38,-140.16 89.09,-277.61 86.92,-411.8 -1.63,-135.27 -32.6,-267.83 -87.47,-398.22 -135.27,-67.9 -274.89,-101.59 -419.94,-101.59 -1.08,0 -2.17,0 -3.26,0z"/>
  <path class="fil2" d="M557.38 841.53c-7.6,-103.77 -2.71,-211.88 -33.68,-310.75 -28.79,-92.36 -137.99,-145.06 -140.16,-246.65 -2.17,-79.32 58.13,-171.13 171.13,-171.13 105.93,-0.54 171.67,76.6 179.27,162.44 9.24,99.42 -111.37,166.24 -142.88,260.77 -32.59,96.7 -23.36,203.73 -33.68,305.32z"/>
  <path class="fil2" d="M599.21 816.54c-4.34,-90.18 -4.34,-176.56 20.65,-253.17 27.7,-86.92 85.29,-160.26 173.3,-184.17 60.3,-16.29 148.85,54.33 134.72,126.59 -11.95,58.13 -70.08,126.58 -163.52,134.19 -43.46,3.8 -61.93,38.57 -89.09,58.67 121.69,-11.95 200.46,-59.76 255.33,-109.74 8.15,42.37 13.58,113.54 -19.56,137.99 -65.19,46.17 -125.49,8.69 -202.09,30.42 -42.92,12.5 -69.54,39.66 -109.74,59.22z"/>
  <path class="fil2" d="M516.09 816.54c4.89,-90.18 4.35,-176.56 -20.1,-253.17 -27.7,-86.92 -85.29,-160.26 -173.29,-184.17 -60.31,-16.29 -149.4,54.33 -134.73,126.59 11.95,58.13 70.08,126.58 163.52,134.19 42.92,3.8 61.93,38.57 89.09,58.67 -122.23,-11.95 -200.46,-59.76 -255.33,-109.74 -8.15,42.37 -13.58,113.54 19.56,137.99 65.19,46.17 125.49,8.69 202.09,30.42 42.92,12.5 68.99,39.66 109.19,59.22z"/>
  <path class="fil2" d="M805.65 950.73l0 -14.67 10.87 -2.72 -10.87 -16.3 0 -27.16 48.89 67.91 -17.38 4.35 -11.95 -16.85 -19.56 5.44zm0 -60.85l0 0 0 27.16 -7.6 -10.86 -3.26 32.59 10.86 -2.71 0 14.67 -12.49 2.71 -2.18 20.1 -17.38 4.35 11.41 -88.56 17.38 -4.34 3.26 4.89zm-161.89 108.11l0 0 0 -14.12 3.8 0c5.98,-0.55 9.78,-1.09 11.41,-1.63 2.17,-0.55 4.35,-2.18 5.43,-3.81 1.63,-2.17 2.18,-4.34 2.18,-7.06 -0.55,-2.72 -1.09,-4.89 -2.72,-6.52 -1.09,-1.63 -3.26,-2.71 -5.43,-3.26 -2.18,-0.54 -7.06,-0.54 -14.67,0l0 -14.12c4.35,0 7.06,-0.55 8.15,-0.55 2.72,-0.54 4.89,-2.17 6.52,-3.8 1.63,-1.63 2.17,-3.8 1.63,-6.52 0,-2.72 -1.09,-4.89 -2.72,-5.98 -1.09,-1.62 -3.26,-2.71 -6.52,-2.71 -1.08,0 -3.26,0 -7.06,0.54l0 -14.12c5.98,-0.55 10.32,-0.55 13.04,0 3.26,0 6.52,1.08 9.23,2.71 2.72,1.09 4.89,3.26 7.07,5.98 1.63,2.72 2.71,5.98 3.26,9.78 0.54,3.8 -0.55,7.6 -2.18,10.86 -1.63,3.26 -4.34,5.98 -8.15,8.15 5.44,1.09 9.78,3.26 12.5,6.52 3.26,3.26 4.89,7.06 5.43,11.95 0,3.81 -0.54,7.61 -1.63,11.41 -1.63,3.81 -3.8,6.52 -6.52,9.24 -3.26,2.17 -6.52,3.8 -10.86,4.89 -2.72,0.54 -9.78,1.08 -20.1,2.17l-1.09 0zm102.68 -45.63l0 0 16.84 2.17c-1.09,9.24 -3.81,16.84 -8.7,22.27 -4.89,4.89 -11.95,8.7 -20.64,10.32 -10.86,1.63 -20.64,-0.54 -28.79,-6.51 -8.69,-6.52 -13.58,-15.76 -16.3,-28.8 -2.17,-13.58 -0.54,-24.99 5.43,-33.68 5.44,-8.69 14.13,-14.12 25.54,-16.3 10.32,-1.63 18.47,0 26.07,4.89 4.35,2.72 8.15,7.06 10.87,13.58l-15.76 6.52c-1.63,-3.8 -4.34,-7.06 -7.6,-8.69 -3.81,-2.17 -7.61,-2.72 -11.95,-2.17 -5.98,1.08 -10.33,4.34 -13.59,9.23 -3.25,5.43 -3.8,12.5 -2.17,22.28 2.17,10.32 5.43,17.38 9.78,21.18 4.35,3.81 9.78,5.44 15.75,4.35 4.35,-1.09 7.61,-3.26 10.33,-6.52 2.71,-3.26 4.34,-8.15 4.89,-14.12zm-102.68 -38.03l0 0 0 14.12c-2.17,0 -4.35,0.55 -7.06,0.55l-9.78 1.08 1.63 19.02 11.41 -1.09c1.08,0 2.71,0 3.8,-0.54l0 14.12c0,0 0,0 -0.54,0l-13.04 1.09 1.63 22.27 11.95 -1.08 0 14.12 -27.16 2.72 -7.61 -83.12 33.14 -2.72c0.54,-0.54 1.09,-0.54 1.63,-0.54zm-104.85 54.87l0 0 0 -14.13c3.8,0 5.98,-0.54 7.61,-1.09 2.17,-0.54 3.8,-2.17 5.43,-3.8 1.09,-2.17 1.63,-4.34 1.63,-6.52 0.54,-3.26 -0.54,-5.43 -2.17,-7.6 -1.63,-2.18 -3.81,-3.26 -6.52,-3.81 -1.63,0 -3.26,-0.54 -5.98,-0.54l0 -14.12c8.15,0 13.04,0.54 15.76,1.62 4.89,1.09 8.69,3.81 11.95,8.16 3.26,4.34 4.89,9.77 4.34,16.29 0,4.89 -1.08,9.24 -2.71,13.04 -2.18,3.26 -4.35,5.98 -7.06,8.15 -3.26,1.63 -5.98,2.72 -9.24,3.8 -3.26,0.55 -7.61,0.55 -13.04,0.55zm0 -51.61l0 0 0 14.12c-1.63,0 -3.8,0 -6.52,0l-8.15 -0.54 0 23.9 8.7 0c2.17,0 4.34,0 5.97,0l0 14.13c-1.08,0 -2.71,0 -4.34,0l-10.87 0 -0.54 31.51 -16.84 -0.55 1.63 -83.12 26.62 0.55c1.63,0 3.26,0 4.34,0zm-157 43.46l0 0 0 -25.53c4.89,1.08 8.15,1.08 9.78,1.08 2.17,-0.54 3.8,-1.08 5.43,-2.72 1.09,-1.63 2.17,-3.26 2.72,-5.97 0.54,-2.72 0,-4.89 -1.09,-7.07 -1.09,-2.17 -3.26,-3.25 -5.97,-4.34 -1.09,-0.54 -4.89,-1.09 -10.87,-2.17l0 -14.13 7.06 1.09c8.69,1.63 14.67,3.26 18.47,5.43 3.81,2.17 6.52,5.43 8.15,9.78 1.63,3.8 2.17,8.69 1.09,13.58 -1.09,5.98 -3.8,10.87 -8.15,14.13 -3.8,3.26 -9.78,4.89 -17.38,4.89 3.26,2.71 5.97,5.43 7.6,8.14 2.17,3.27 4.35,8.15 7.06,15.22l7.07 17.92 -19.56 -3.8 -8.69 -20.1c-1.09,-1.63 -1.63,-3.8 -2.72,-5.43zm47.81 -51.61l0 0 16.3 1.63 -3.81 45.09c-0.54,7.06 -0.54,11.95 -0.54,13.58 0.54,3.8 2.17,6.52 4.35,8.69 2.71,2.72 5.97,3.81 10.86,4.35 4.89,0.54 8.69,-0.54 10.87,-2.17 2.71,-1.63 4.34,-3.81 5.43,-6.52 0.54,-2.72 1.08,-7.61 1.63,-14.13l3.8 -46.18 16.84 1.63 -3.8 43.47c-0.55,10.32 -1.63,17.38 -3.26,21.18 -1.09,3.81 -3.26,7.61 -5.43,9.78 -2.72,2.72 -6.52,4.89 -10.87,5.98 -3.8,1.63 -9.23,1.63 -15.75,1.08 -8.15,-0.54 -14.13,-2.17 -17.93,-4.34 -3.8,-2.18 -7.06,-4.89 -9.24,-7.61 -2.17,-3.26 -3.26,-6.52 -3.8,-9.78 -0.54,-4.89 -0.54,-11.95 0,-21.19l4.35 -44.54zm-132.01 24.44l0 0 3.26 -13.58 35.31 9.24 -8.7 32.05c-4.34,2.72 -9.77,4.35 -17.38,4.89 -7.06,0.54 -13.58,0 -20.1,-1.63 -8.69,-2.17 -15.75,-5.97 -20.64,-10.87 -5.44,-5.43 -8.7,-11.95 -10.33,-19.01 -1.08,-7.6 -1.08,-15.21 1.09,-22.82 2.17,-8.14 5.98,-15.21 11.41,-21.18 4.89,-5.44 11.41,-8.7 19.01,-10.32 5.98,-1.63 13.04,-1.09 20.65,1.08 9.78,2.72 17.38,6.52 21.73,12.5 4.34,5.43 6.52,12.49 5.97,20.1l-16.84 -1.09c0,-4.35 -1.08,-8.15 -3.8,-11.41 -2.72,-2.72 -5.98,-5.43 -10.87,-6.52 -7.06,-1.63 -13.03,-1.08 -18.47,2.17 -5.43,3.26 -9.23,9.79 -11.95,18.48 -2.71,9.78 -2.17,17.38 0.55,23.36 3.26,5.97 8.14,9.78 14.66,11.41 3.81,1.08 7.07,1.08 10.87,1.08 3.8,-0.54 7.06,-1.63 10.32,-2.71l2.72 -10.33 -18.47 -4.89zm84.2 -33.68l0 0 -28.25 -4.89 -14.12 82.04 16.29 2.71 5.98 -34.22 3.8 0.54c3.81,0.54 6.52,1.63 8.15,2.17 1.63,1.09 2.72,2.72 4.35,4.35 0.54,1.63 2.17,4.34 3.8,8.15l0 -25.53c-1.63,0 -3.26,-0.55 -5.43,-0.55l-11.95 -2.17 3.26 -20.65 13.03 2.18c0.55,0 1.09,0 1.09,0l0 -14.13z"/>
  <path class="fil2" d="M2971.07 798.61l0 -153.2 67.36 0 0 -269.47 -67.36 134.74 0 -336.29 264.57 0 67.36 774.71 -264.57 0 0 -150.49 -67.36 0zm0 -624.22l0 0 0 336.29 -67.36 134.73 67.36 0 0 153.2 -127.12 0 -52.15 142.34 -164.07 0 0 -177.11 183.08 -394.96 -37.48 0 104.3 -194.49 93.44 0zm-343.34 258.06l0 0 82.03 -194.5 -82.03 -45.63 0 240.13zm-652.45 -74.43l0 0c3.8,-22.28 3.8,-44.01 0,-64.65l0 64.65zm652.45 -165.7l0 0 0 240.13 -10.86 26.07c-161.89,-115.72 -400.93,-10.32 -414.51,111.91 -13.58,127.68 83.66,230.9 331.93,153.75l-85.29 228.18c-327.58,36.39 -454.7,-93.45 -473.72,-245.02l0 -85.84c4.89,-39.66 15.21,-78.23 29.34,-114.08 161.34,-400.94 423.2,-310.76 522.61,-318.36l14.67 -44.55 85.83 47.81zm0 571.52l0 0 -82.03 177.11 82.03 0 0 -177.11zm-946.89 172.22l0 0c175.47,-34.77 347.68,-245.56 174.93,-413.43 67.36,-35.86 109.19,-100.51 119.51,-164.61l0 -64.65c-11.95,-66.83 -63.56,-121.15 -160.8,-122.78l-133.64 -2.72 0 148.86 55.41 0c59.21,0 51.61,153.2 -22.27,153.2l-33.14 0 0 117.35c79.86,15.21 51.61,126.04 0,160.26l0 188.52zm294.44 -314.56l0 0 0 85.84c-3.26,-28.25 -3.26,-57.05 0,-85.84zm-525.87 -458.52l0 0 -108.11 209.7 48.35 -3.8 -130.38 572.07 373.22 0c16.29,0 32.05,-1.63 48.35,-4.89l0 -188.52c-9.24,6.52 -19.56,10.32 -29.88,10.32l-134.19 0 44.55 -172.21 100.5 0c7.07,0 13.58,0.54 19.02,1.63l0 -117.35 -93.44 0 37.48 -153.2 55.96 0 0 -148.86 -231.43 -4.89z"/>
 </g>
</svg>
